# xmcd
#
# Track frame offsets: 
#        150
#        14790
#        25445
#        38529
#        51582
#        65702
#        80634
#        94692
#        105668
#        121503
#        132546
#        143657
#        157168
#        171477
#        182586
#        195909
#        208282
#
# Disc length: 2991 seconds
#
# Revision: 0
# Processed by: cddbd v1.5.2PL0 Copyright (c) Steve Scherf et al.
# Submitted via: ExactAudioCopy v0.95b3
#
DISCID=f90bad11
DTITLE=The Grass Roots  - Where Were You When I Needed You (1966) 
DYEAR=1900
DGENRE=
TTITLE0=Only When You're Lonely
TTITLE1=Look Out Girl
TTITLE2=Ain't That Lovin' You Baby
TTITLE3=I've Got No More To Say
TTITLE4=I Am A Rock
TTITLE5=Lollipop Train (You Never Had It So Good)
TTITLE6=Where Were You When I Needed
TTITLE7=You Didn't Have To Be So Nice
TTITLE8=Tell Me (You're Coming Back)
TTITLE9=You Baby
TTITLE10=This Is What I Was Made For
TTITLE11=Mr. Jones (Ballad Of A Thin Man)
TTITLE12=(These Are) Bad Times
TTITLE13=You're A Lonely Girl
TTITLE14=You've Got To Hide Your Love Away
TTITLE15=Hitch Hike
TTITLE16=Eve Of Destruction
EXTD=
EXTT0=
EXTT1=
EXTT2=
EXTT3=
EXTT4=
EXTT5=
EXTT6=
EXTT7=
EXTT8=
EXTT9=
EXTT10=
EXTT11=
EXTT12=
EXTT13=
EXTT14=
EXTT15=
EXTT16=
PLAYORDER=
